<?xml version="1.0" encoding="utf-8"?>
<!-- Generator: Adobe Illustrator 22.0.1, SVG Export Plug-In . SVG Version: 6.00 Build 0)  -->
<svg version="1.1" id="Слой_1" xmlns="http://www.w3.org/2000/svg" xmlns:xlink="http://www.w3.org/1999/xlink" x="0px" y="0px"
	 viewBox="0 0 60 31.2" style="enable-background:new 0 0 60 31.2;" xml:space="preserve">
<style type="text/css">
	.st0{fill:#373737;}
</style>
<g>
	<path class="st0" d="M29.1,31.2c-0.9-0.4-1.9-0.8-2.9-1.3s-1.9-1.1-2.9-1.7c-2.5,1.7-5.3,2.6-8.4,2.6c-2.1,0-4.1-0.4-5.9-1.2
		c-1.8-0.8-3.4-1.9-4.8-3.3s-2.4-3-3.2-4.9c-0.8-1.9-1.1-3.9-1.1-6c0-2.1,0.4-4.2,1.2-6S3,5.9,4.4,4.5c1.4-1.4,3-2.5,4.8-3.3
		C10.9,0.4,12.9,0,15,0c2.1,0,4,0.4,5.8,1.2c1.8,0.8,3.4,1.9,4.8,3.3c1.4,1.4,2.4,3,3.2,4.9c0.8,1.9,1.2,3.9,1.2,6
		c0,1.8-0.3,3.5-0.9,5.2c-0.6,1.7-1.5,3.1-2.6,4.4c0.8,0.4,1.6,0.8,2.4,1.1s1.6,0.6,2.3,0.9L29.1,31.2z M14.9,26.3
		c0.8,0,1.6-0.1,2.3-0.3s1.4-0.5,2-0.9c-0.8-0.7-1.6-1.4-2.4-2.2c-0.8-0.8-1.5-1.5-2.2-2.3l2-2.5c1.6,1.7,3.5,3.2,5.4,4.6
		c0.9-0.9,1.5-2,2-3.3c0.5-1.2,0.7-2.6,0.7-3.9c0-1.6-0.2-3-0.7-4.3c-0.5-1.3-1.2-2.5-2.1-3.4c-0.9-1-1.9-1.7-3.1-2.3
		S16.4,4.5,15,4.5c-1.4,0-2.7,0.3-4,0.8S8.8,6.7,7.9,7.6c-0.9,1-1.6,2.1-2.1,3.5c-0.5,1.3-0.7,2.8-0.7,4.4c0,1.6,0.2,3,0.7,4.3
		c0.5,1.3,1.2,2.5,2.1,3.4c0.9,1,1.9,1.7,3.1,2.3C12.2,26,13.5,26.3,14.9,26.3z"/>
	<path class="st0" d="M50.5,30.8c-2.2,0-4.3-0.4-6.3-1.2s-3.7-1.9-5.1-3.3c-1.5-1.4-2.6-3-3.4-4.9c-0.8-1.9-1.2-3.9-1.2-6
		c0-2.1,0.4-4.2,1.3-6c0.8-1.9,2-3.5,3.4-4.9c1.5-1.4,3.2-2.5,5.1-3.3c1.9-0.8,4-1.2,6.3-1.2c1.8,0,3.6,0.3,5.2,0.8
		C57.3,1.3,58.8,2,60,2.9l-2.1,4c-0.9-0.7-2-1.3-3.2-1.7c-1.2-0.4-2.5-0.6-3.9-0.6c-1.6,0-3.1,0.3-4.5,0.8c-1.4,0.6-2.6,1.3-3.6,2.3
		c-1,1-1.8,2.1-2.3,3.4c-0.6,1.3-0.8,2.7-0.8,4.2s0.3,2.9,0.8,4.2c0.6,1.3,1.3,2.5,2.3,3.4c1,1,2.2,1.7,3.6,2.3
		c1.4,0.6,2.9,0.8,4.5,0.8c1.4,0,2.7-0.2,3.9-0.6c1.2-0.4,2.3-1,3.2-1.7l2.1,4c-1.2,0.9-2.6,1.5-4.2,2.1
		C54.1,30.5,52.4,30.8,50.5,30.8z"/>
</g>
</svg>
